classDiagram
  %% feature integration changes original class (from s_obey)
  class Product {
    price
    name
  }

  class ShoppingCart {
    calcTotalPrice()
  }

  class CartInvoicePrinter {
    printInvoice()
  }

  class CartDBStorage {
    saveToSQL()
    saveToMongo()
    saveToS3()
  }

  ShoppingCart "1" o-- "*" Product
  CartInvoicePrinter --> ShoppingCart
  CartDBStorage --> ShoppingCart
